<?xml version="1.0" encoding="UTF-8" standalone="no"?>
<!-- Created with Inkscape (http://www.inkscape.org/) -->

<svg
   version="1.1"
   id="svg1"
   width="345.60001"
   height="345.60001"
   viewBox="0 0 345.60001 345.60001"
   sodipodi:docname="spclogo.svg"
   inkscape:version="1.4.2 (f4327f4, 2025-05-13)"
   xmlns:inkscape="http://www.inkscape.org/namespaces/inkscape"
   xmlns:sodipodi="http://sodipodi.sourceforge.net/DTD/sodipodi-0.dtd"
   xmlns="http://www.w3.org/2000/svg"
   xmlns:svg="http://www.w3.org/2000/svg">
  <defs
     id="defs1" />
  <sodipodi:namedview
     id="namedview1"
     pagecolor="#ffffff"
     bordercolor="#000000"
     borderopacity="0.25"
     inkscape:showpageshadow="2"
     inkscape:pageopacity="0.0"
     inkscape:pagecheckerboard="0"
     inkscape:deskcolor="#d1d1d1"
     showgrid="false"
     inkscape:zoom="3.3767361"
     inkscape:cx="172.8"
     inkscape:cy="172.8"
     inkscape:window-width="2560"
     inkscape:window-height="1369"
     inkscape:window-x="1912"
     inkscape:window-y="-8"
     inkscape:window-maximized="1"
     inkscape:current-layer="g1" />
  <g
     inkscape:groupmode="layer"
     inkscape:label="Image"
     id="g1">
    <path
       style="fill:#000000"
       d="m 182.5308,315.4604 c -19.00761,-1.6525 -35.20032,-6.24031 -52.46862,-14.86571 -15.61358,-7.79887 -25.61678,-14.97285 -37.633435,-26.9895 -12.01665,-12.01665 -19.19063,-22.01985 -26.9895,-37.63343 -7.78563,-15.58706 -12.08124,-29.64151 -14.32496,-46.86863 -0.85251,-6.54554 -0.85251,-29.61446 0,-36.16 2.24372,-17.22711 6.53933,-31.28156 14.32496,-46.86862 7.79887,-15.613576 14.97285,-25.616775 26.9895,-37.633426 C 104.4454,56.424433 114.4486,49.250455 130.06218,41.451581 c 15.58706,-7.785626 29.64151,-12.081236 46.86862,-14.324953 6.54554,-0.852513 29.61446,-0.852513 36.16,0 17.22712,2.243717 31.28157,6.539327 46.86863,14.324953 13.65639,6.821275 24.58958,14.319229 34.04918,23.350843 3.65118,3.485987 4.36219,4.473858 4.36219,6.060714 0,1.478386 -0.65345,2.466087 -3.41674,5.164404 -2.79658,2.730829 -3.45659,3.155596 -4.90326,3.155596 -1.44897,0 -2.04232,-0.400163 -5.6,-3.776756 -9.25723,-8.786044 -23.16651,-18.172911 -34.72,-23.431261 -35.54646,-16.1783 -73.89353,-16.1783 -109.44,0 -8.51892,3.877227 -19.2657,10.579191 -27.52,17.16217 -5.54178,4.419687 -15.226165,14.104069 -19.645845,19.645843 -14.56158,18.258536 -23.72165,38.647496 -27.53729,61.293916 -4.27923,25.39788 -0.7332,51.25924 10.37512,75.66608 3.87722,8.51893 10.57919,19.26571 17.16217,27.52 4.41968,5.54178 14.104065,15.22617 19.645845,19.64585 8.2543,6.58298 19.00108,13.28494 27.52,17.16217 35.54647,16.1783 73.89354,16.1783 109.44,0 11.55349,-5.25835 25.46277,-14.64521 34.72,-23.43126 3.55768,-3.37659 4.15103,-3.77676 5.6,-3.77676 1.44667,0 2.10668,0.42477 4.90326,3.1556 2.76329,2.69832 3.41674,3.68602 3.41674,5.1644 0,1.58686 -0.71101,2.57473 -4.36219,6.06072 -9.4596,9.03161 -20.39279,16.52957 -34.04918,23.35084 -15.25854,7.62153 -28.86385,11.84621 -45.58283,14.15425 -4.07741,0.56288 -6.74583,0.67656 -17.6058,0.75004 -7.04,0.0476 -13.448,0.0303 -14.24,-0.0386 z m 7.71523,-34.80383 c -1.69703,-0.94059 -1.6117,1.82299 -1.62389,-52.59344 -0.006,-27.852 -0.10086,-50.64 -0.21027,-50.64 -1.05245,0 -7.66258,-1.15879 -10.1317,-1.77614 -7.88307,-1.971 -15.89377,-6.07997 -22.23804,-11.40668 -8.86381,-7.44215 -15.75111,-19.66635 -18.37248,-32.60919 -0.66545,-3.28559 -0.73885,-4.52221 -0.73885,-12.44799 0,-7.92578 0.0734,-9.1624 0.73885,-12.44798 3.6115,-17.831496 14.0408,-32.125317 28.86036,-39.554428 8.74402,-4.383412 16.77526,-6.237584 27.01775,-6.237584 5.82436,0 6.78541,0.224957 7.48074,1.751059 0.29125,0.639206 0.3823,12.873329 0.3823,51.364383 v 50.52534 l 1.52,0.20297 c 12.73817,1.70095 22.36432,5.73807 31.04867,13.02151 8.85753,7.42869 15.75087,19.66271 18.37249,32.60675 0.66544,3.28558 0.73884,4.5222 0.73884,12.44798 0,10.02339 -0.37176,12.72486 -2.74793,19.96799 -6.82916,20.81693 -23.27706,34.58342 -45.13313,37.77532 -4.3393,0.63372 -13.85329,0.66559 -14.96371,0.0501 z m 17.22738,-14.14514 c 14.12654,-3.32233 25.29431,-13.53604 29.91794,-27.36204 2.14764,-6.4221 2.54098,-8.94319 2.54098,-16.28626 0,-7.34306 -0.39334,-9.86415 -2.54098,-16.28625 -4.36497,-13.05254 -14.71264,-23.04404 -27.82055,-26.86293 -1.97766,-0.57618 -7.10431,-1.65082 -7.87535,-1.65082 -0.16484,0 -0.28465,18.86741 -0.28465,44.82813 v 44.82813 l 1.36,-0.21092 c 0.748,-0.116 2.86418,-0.56467 4.70261,-0.99704 z M 188.6108,119.18313 c 0,-28.555386 -0.11192,-44.799992 -0.30865,-44.799992 -1.11094,0 -7.13201,1.392258 -9.60679,2.221385 -12.7507,4.271878 -22.47183,14.437351 -26.52245,27.734767 -1.82038,5.97599 -2.11643,8.05237 -2.11643,14.84384 0,6.79147 0.29605,8.86786 2.11643,14.84384 4.03357,13.24146 13.79187,23.47801 26.39646,27.69013 2.62636,0.87766 8.17415,2.19027 9.48143,2.24331 0.53078,0.0215 0.56,-2.31529 0.56,-44.77728 z"
       id="path1" />
  </g>
</svg>
